<mxfile host="app.diagrams.net" modified="2021-01-08T00:46:47.131Z" agent="5.0 (X11)" etag="IP1zgjZmNHdh7S-64-hS" version="14.1.8" type="github">
  <diagram id="SXfDxzFWt6EPNgV6SbXH" name="Page-1">
    <mxGraphModel dx="1185" dy="703" grid="1" gridSize="10" guides="1" tooltips="1" connect="1" arrows="1" fold="1" page="1" pageScale="1" pageWidth="827" pageHeight="1169" math="0" shadow="0">
      <root>
        <mxCell id="0" />
        <mxCell id="1" parent="0" />
        <mxCell id="aVLMBq3iaSL3DEeVHCtI-1" value="" style="ellipse;html=1;shape=startState;fillColor=#000000;strokeColor=#ff0000;" vertex="1" parent="1">
          <mxGeometry x="384" y="30" width="30" height="30" as="geometry" />
        </mxCell>
        <mxCell id="aVLMBq3iaSL3DEeVHCtI-2" value="" style="edgeStyle=orthogonalEdgeStyle;html=1;verticalAlign=bottom;endArrow=open;endSize=8;strokeColor=#ff0000;" edge="1" source="aVLMBq3iaSL3DEeVHCtI-1" parent="1">
          <mxGeometry relative="1" as="geometry">
            <mxPoint x="399" y="120" as="targetPoint" />
          </mxGeometry>
        </mxCell>
        <mxCell id="aVLMBq3iaSL3DEeVHCtI-3" value="Nhập tài khoản, mật khẩu" style="rounded=1;whiteSpace=wrap;html=1;arcSize=40;fontColor=#000000;fillColor=#ffffc0;strokeColor=#ff0000;" vertex="1" parent="1">
          <mxGeometry x="339" y="120" width="120" height="40" as="geometry" />
        </mxCell>
        <mxCell id="aVLMBq3iaSL3DEeVHCtI-4" value="" style="edgeStyle=orthogonalEdgeStyle;html=1;verticalAlign=bottom;endArrow=open;endSize=8;strokeColor=#ff0000;" edge="1" source="aVLMBq3iaSL3DEeVHCtI-3" parent="1">
          <mxGeometry relative="1" as="geometry">
            <mxPoint x="399" y="220" as="targetPoint" />
          </mxGeometry>
        </mxCell>
        <mxCell id="aVLMBq3iaSL3DEeVHCtI-10" style="edgeStyle=orthogonalEdgeStyle;rounded=0;orthogonalLoop=1;jettySize=auto;html=1;endArrow=open;endFill=0;strokeColor=#FF0000;" edge="1" parent="1" source="aVLMBq3iaSL3DEeVHCtI-9" target="aVLMBq3iaSL3DEeVHCtI-3">
          <mxGeometry relative="1" as="geometry">
            <Array as="points">
              <mxPoint x="399" y="260" />
              <mxPoint x="280" y="260" />
              <mxPoint x="280" y="140" />
            </Array>
          </mxGeometry>
        </mxCell>
        <mxCell id="aVLMBq3iaSL3DEeVHCtI-15" style="edgeStyle=orthogonalEdgeStyle;rounded=0;orthogonalLoop=1;jettySize=auto;html=1;endArrow=open;endFill=0;strokeColor=#FF0000;" edge="1" parent="1" target="aVLMBq3iaSL3DEeVHCtI-13">
          <mxGeometry relative="1" as="geometry">
            <mxPoint x="399" y="200" as="sourcePoint" />
          </mxGeometry>
        </mxCell>
        <mxCell id="aVLMBq3iaSL3DEeVHCtI-9" value="&lt;div&gt;Xác thực&lt;/div&gt;&lt;div&gt;tài khoản&lt;/div&gt;" style="rhombus;whiteSpace=wrap;html=1;strokeColor=#FF0000;fillColor=#FFFFCC;" vertex="1" parent="1">
          <mxGeometry x="359" y="220" width="80" height="80" as="geometry" />
        </mxCell>
        <mxCell id="aVLMBq3iaSL3DEeVHCtI-12" value="invalid" style="text;html=1;strokeColor=none;fillColor=none;align=center;verticalAlign=middle;whiteSpace=wrap;rounded=0;" vertex="1" parent="1">
          <mxGeometry x="280" y="240" width="71" height="20" as="geometry" />
        </mxCell>
        <mxCell id="aVLMBq3iaSL3DEeVHCtI-13" value="&lt;div&gt;Đăng nhập&lt;/div&gt;&lt;div&gt;thành công&lt;/div&gt;" style="rounded=1;whiteSpace=wrap;html=1;arcSize=40;fontColor=#000000;fillColor=#ffffc0;strokeColor=#ff0000;" vertex="1" parent="1">
          <mxGeometry x="339" y="340" width="120" height="40" as="geometry" />
        </mxCell>
        <mxCell id="aVLMBq3iaSL3DEeVHCtI-14" value="" style="edgeStyle=orthogonalEdgeStyle;html=1;verticalAlign=bottom;endArrow=open;endSize=8;strokeColor=#ff0000;" edge="1" source="aVLMBq3iaSL3DEeVHCtI-13" parent="1">
          <mxGeometry relative="1" as="geometry">
            <mxPoint x="399" y="440" as="targetPoint" />
          </mxGeometry>
        </mxCell>
        <mxCell id="aVLMBq3iaSL3DEeVHCtI-16" value="valid" style="text;html=1;strokeColor=none;fillColor=none;align=center;verticalAlign=middle;whiteSpace=wrap;rounded=0;" vertex="1" parent="1">
          <mxGeometry x="399" y="300" width="40" height="20" as="geometry" />
        </mxCell>
        <mxCell id="aVLMBq3iaSL3DEeVHCtI-17" value="&lt;div&gt;Hiển thị&lt;/div&gt;&lt;div&gt;màn hình chính&lt;/div&gt;" style="rounded=1;whiteSpace=wrap;html=1;arcSize=40;fontColor=#000000;fillColor=#ffffc0;strokeColor=#ff0000;" vertex="1" parent="1">
          <mxGeometry x="339" y="440" width="120" height="40" as="geometry" />
        </mxCell>
        <mxCell id="aVLMBq3iaSL3DEeVHCtI-18" value="" style="edgeStyle=orthogonalEdgeStyle;html=1;verticalAlign=bottom;endArrow=open;endSize=8;strokeColor=#ff0000;" edge="1" source="aVLMBq3iaSL3DEeVHCtI-17" parent="1">
          <mxGeometry relative="1" as="geometry">
            <mxPoint x="399" y="540" as="targetPoint" />
          </mxGeometry>
        </mxCell>
        <mxCell id="aVLMBq3iaSL3DEeVHCtI-20" value="" style="ellipse;html=1;shape=endState;fillColor=#000000;strokeColor=#ff0000;" vertex="1" parent="1">
          <mxGeometry x="384" y="540" width="30" height="30" as="geometry" />
        </mxCell>
      </root>
    </mxGraphModel>
  </diagram>
</mxfile>
